HIERARCHY
ROOT HipCenter
{
    OFFSET 0.0 0.0 -0.0
    CHANNELS 6 Xposition Yposition Zposition Zrotation Xrotation Yrotation
    JOINT Spine
    {
        OFFSET 0.0 0.10257791727781296 0.0
        CHANNELS 3 Zrotation Xrotation Yrotation
        JOINT ShoulderCenter
        {
            OFFSET 0.0 0.2983526289463043 0.0
            CHANNELS 3 Zrotation Xrotation Yrotation
            JOINT LeftShoulder
            {
                OFFSET 0.19006788730621338 0.0 0.0
                CHANNELS 3 Zrotation Xrotation Yrotation
                JOINT LeftElbow
                {
                    OFFSET 0.2199472039937973 0.0 0.0
                    CHANNELS 3 Zrotation Xrotation Yrotation
                    JOINT LeftWrist
                    {
                        OFFSET 0.26981714367866516 0.0 0.0
                        CHANNELS 3 Zrotation Xrotation Yrotation
                        JOINT LeftHand
                        {
                            OFFSET 0.040231794118881226 0.0 0.0
                            CHANNELS 3 Zrotation Xrotation Yrotation
                            End Site
                            {
                                OFFSET 0.01609271764755249 0.0 0.0
                            }
                        }
                    }
                }
            }
            JOINT RightShoulder
            {
                OFFSET -0.19006788730621338 0.0 0.0
                CHANNELS 3 Zrotation Xrotation Yrotation
                JOINT RightElbow
                {
                    OFFSET -0.2199472039937973 0.0 0.0
                    CHANNELS 3 Zrotation Xrotation Yrotation
                    JOINT RightWrist
                    {
                        OFFSET -0.26981714367866516 0.0 0.0
                        CHANNELS 3 Zrotation Xrotation Yrotation
                        JOINT RightHand
                        {
                            OFFSET -0.040231794118881226 0.0 0.0
                            CHANNELS 3 Zrotation Xrotation Yrotation
                            End Site
                            {
                                OFFSET -0.01609271764755249 0.0 0.0
                            }
                        }
                    }
                }
            }
            End Site
            {
                OFFSET 0.0 0.11934105306863785 0.0
            }
        }
    }
    JOINT LeftHip
    {
        OFFSET 0.12685683369636536 0.0 0.0
        CHANNELS 3 Zrotation Xrotation Yrotation
        JOINT LeftKnee
        {
            OFFSET 0.0 -0.3799298405647278 0.0
            CHANNELS 3 Zrotation Xrotation Yrotation
            JOINT LeftAnkle
            {
                OFFSET 0.0 -0.3775678873062134 0.0
                CHANNELS 3 Zrotation Xrotation Yrotation
                JOINT LeftFoot
                {
                    OFFSET 0.0 -0.09019118547439575 0.0
                    CHANNELS 3 Zrotation Xrotation Yrotation
                    End Site
                    {
                        OFFSET 0.0 0.0 0.03607647120952606
                    }
                }
            }
        }
    }
    JOINT RightHip
    {
        OFFSET -0.12685683369636536 0.0 0.0
        CHANNELS 3 Zrotation Xrotation Yrotation
        JOINT RightKnee
        {
            OFFSET 0.0 -0.3799298405647278 0.0
            CHANNELS 3 Zrotation Xrotation Yrotation
            JOINT RightAnkle
            {
                OFFSET 0.0 -0.3775678873062134 0.0
                CHANNELS 3 Zrotation Xrotation Yrotation
                JOINT RightFoot
                {
                    OFFSET 0.0 -0.09019118547439575 0.0
                    CHANNELS 3 Zrotation Xrotation Yrotation
                    End Site
                    {
                        OFFSET 0.0 0.0 0.03607647120952606
                    }
                }
            }
        }
    }
}
MOTION
Frames: 8
Frame Time: 0.03333333333333333
1.4880000352859497 -0.0729999989271164 0.052000001072883606 -0.561664685412375 0.5616774854871289 88.18885257734648 0.5860131854784822 -5.739628597062897 0.43363007369734907 3.2680450286262615e-07 3.4205687513760805e-07 0.14902277776171946 94.35913350980942 12.973590036229307 178.44157107801868 9.7398293895269e-07 -2.3221038133507686e-06 15.932223348783303 -1.3004462280658128e-06 -40.56187041123349 27.693208896885423 6.3611093629270335e-15 -5.9635400277440935e-15 3.1805546814635168e-15 -89.00009512355463 6.993636227716305 -166.73232934695153 2.406232410263873e-07 1.9768468295824675e-06 -25.12199294997521 -5.110910287410542e-07 16.056341386372083 -32.21367437042766 3.1805546814635168e-15 -8.827812596100317e-32 -3.1805546814635168e-15 -1.464071479083016 9.395673153282086 -31.163723629955356 -0.9225611141446146 1.9502109152832519 -1.9590148664285525 73.19726699238846 -44.76117971923495 127.41514535910709 3.975693351829396e-15 0.0 0.0 2.6168909234792395 14.244425621753425 27.996119680231324 0.6427037554500749 -5.54000856421446 -3.784470603916457 170.12486852625906 -53.4316291221548 142.09648985806314 6.3611093629270335e-15 -6.3611093629270335e-15 3.531125038440127e-31
1.4900000095367432 -0.08100000023841858 0.05000000074505806 0.5617316286721786 0.5616774732587725 86.05085311084423 0.5455905380278958 -4.815505798926624 -0.05382669010941321 -4.0729068931385355e-07 2.0804137736434656e-07 2.727036925379774 95.23867374807227 12.19539664768937 178.73849270253817 -3.709565726149912e-06 1.8677080635616392e-06 16.766232537199944 -3.569398915088485e-06 -41.79249371644356 28.685669107603193 0.0 -3.975693351829396e-16 0.0 -89.34662078620123 10.678553066522111 -168.3375944128938 -9.18622963777061e-07 -3.3492993079102614e-06 -22.54708788310367 -2.075879356837936e-06 -15.550534224276818 -23.15250030218484 -1.5902773407317584e-15 4.4139062980501586e-32 -3.1805546814635168e-15 -3.6343440179197346 11.378060648601105 -26.645043302408983 -0.4297592220529476 1.2209097455137135 -1.0274574709636028 71.0295925912153 -47.64675116802141 117.5785571971803 -1.5902773407317582e-15 -4.4139062980501586e-32 3.1805546814635164e-15 0.7297385094146928 15.52892557841068 31.342953630453568 -0.1289743732138251 -6.478167923529632 -5.687970841302872 155.77123422378583 -55.96138514651119 118.98268230458244 0.0 0.0 1.5902773407317584e-15
1.4889999628067017 -0.08100000023841858 0.050999999046325684 0.0 0.0 86.44582340461169 1.0929428164312203 -5.136104011972081 -0.0610915191755912 2.761200489460569e-07 1.8562675851702276e-07 2.027766117241115 95.20037167978329 12.175670512958847 178.92353098532965 -6.024309089500706e-06 -6.445959481334918e-07 17.42348803438613 -6.983761790651161e-06 -38.888769262971735 27.891240442460976 1.7655625192200634e-31 6.3611093629270335e-15 -3.1805546814635168e-15 -89.8169319965191 11.02993353719507 -169.38466659138444 1.9458751763278666e-06 2.4692472199322918e-06 -21.750764340766818 -4.637522193338088e-06 -13.639415376233512 -22.861305978448378 0.0 0.0 0.0 -3.1034639950103613 10.749538130403986 -26.28326977535184 -0.31820490926989514 1.3812605733553887 -1.1420445404355395 71.05214114502142 -47.63422858411306 116.99943159755573 -3.1805546814635168e-15 4.4139062980501586e-32 -1.5902773407317584e-15 1.4371391771569106 14.810732218939869 31.591517915398814 -0.4962065403743324 -6.423830246822775 -5.743119939242911 157.56119429882088 -60.51605022638134 119.18664939814622 0.0 0.0 0.0
1.4900000095367432 -0.08100000023841858 0.05000000074505806 0.561731614918989 0.5616773584895551 86.42951041507325 -0.28344646503657306 -4.4676286043315585 -0.11401487720643459 -2.910903251013821e-07 2.24323759263217e-08 2.1873005015154536 95.71894380570319 8.199292175809354 178.37164085962092 -1.6369003193410522e-06 -1.8538515632295397e-06 18.171435933745176 2.243446103187143e-06 -44.25865395226016 28.772940383887043 0.0 0.0 0.0 -89.43992303221566 12.017920518599569 -169.53293574112874 -1.762666600727925e-06 9.343888077739217e-07 -22.035232852451458 4.028675790994155e-06 -13.369500715061656 -21.419061211746595 6.3611093629270335e-15 6.3611093629270335e-15 -3.1805546814635168e-15 -3.7076695486899878 11.273544270162917 -26.029541827712674 -0.44311881633157923 1.3067876848697493 -1.0941118326622505 71.00828487668888 -47.84807045024293 117.30044638161019 -7.951386703658792e-15 1.1034765745125397e-31 -1.5902773407317584e-15 1.0383858782621416 14.752610909380207 30.222983564899632 -0.7219869966186602 -5.096797015672608 -4.614201079304757 159.3262523168225 -66.17203504703606 119.40939916534998 0.0 0.0 -1.5902773407317588e-15
1.4900000095367432 -0.08100000023841858 0.05000000074505806 0.556278270464641 0.5562251061655967 86.76084664101134 -1.320405667721274 -3.568002966351775 -0.17925344589279202 3.6687132662934473e-07 2.416928155522312e-07 1.7507042059075952 95.86840410471356 7.331455802180757 178.5498286781475 -2.392790890193851e-06 3.5160779079018686e-07 17.99987533195321 -1.4989278953993068e-06 -41.61727542663681 27.462810998497474 0.0 -6.361109362927035e-15 0.0 -88.61907605631349 12.428625383912356 -170.4699343190266 -1.479491915836746e-06 1.9198496169602e-06 -21.93322528555972 2.5631006168564988e-08 -13.467641268589812 -22.883953632924573 0.0 0.0 3.180554681463516e-15 -3.468442602738427 11.126222597043267 -26.250783550333637 -0.8105074523874615 1.3314972365351534 -1.097010682720596 71.35595654817446 -47.35008404974468 117.35668228416247 1.590277340731758e-15 -3.180554681463516e-15 1.590277340731758e-15 1.131311752990189 14.741201055703696 30.671263335255947 -0.9254843967255787 -4.675893450141073 -4.275375798828523 159.84837418831748 -69.23730343612299 119.105893974645 -6.3611093629270335e-15 1.7655625192200634e-31 -3.1805546814635168e-15
1.4900000095367432 -0.08100000023841858 0.05000000074505806 2.5650425032367195e-08 0.5562513375642227 87.15641177469328 -2.5050666357506173 -3.3911955404354375 -0.26292868601299235 3.0813412795096525e-07 2.4639319198675363e-07 1.1197862196105808 96.28896343777079 6.423044839215576 177.77902148387994 -1.2529419422055812e-06 -6.0760745523762454e-06 18.372343475584156 4.2215986225856985e-06 -43.03780306819975 26.567214582109003 0.0 -2.4848083448933725e-17 0.0 -87.79621975247339 12.348307818320315 -171.53196467039817 -3.611689879133884e-07 2.5090600148154164e-06 -21.15934335074948 3.0038416091235817e-06 -13.642852360477287 -22.15244811554447 1.5902773407317584e-15 -4.4139062980501586e-32 -3.1805546814635168e-15 -3.5084840027287165 10.586359459702209 -26.208001053719958 -0.650259771703858 1.3858567359048317 -1.1196941252365957 72.02289576834555 -47.88564432836576 117.30163435911801 -4.770832022195275e-15 -6.3611093629270335e-15 -2.648343778830095e-31 1.2583996961472166 14.177712721468266 30.792573478668967 -0.9618494694871632 -4.328472609912114 -3.9348488367105956 158.4367323980941 -70.25683976733737 117.64240657371215 0.0 0.0 0.0
1.4900000095367432 -0.07999999821186066 0.050999999046325684 0.0 0.0 87.15534559616049 -2.572198855009171 -2.4340276364938296 -0.20022459940325318 5.311105335551661e-08 3.708278376061229e-08 0.6579547331816948 96.34584314987592 5.67571439963223 177.69338176266794 -6.063994037915459e-06 -1.6784787994388672e-06 17.763201506254212 -4.5867674687678824e-07 -41.30380671501825 26.473027376960385 0.0 0.0 0.0 -87.23712951647879 11.809605825566 -172.46130111308057 -2.3658801257571656e-06 -2.607319779135749e-06 -21.169609237407744 1.0104142428151592e-06 -11.740780761483885 -23.022822601277436 1.5902773407317584e-15 6.3611093629270335e-15 -8.827812596100317e-32 -2.961207316078851 10.641220324156595 -26.39144841596168 -0.5053176590199958 1.437308662685189 -1.1922811961182989 70.89692910232402 -48.1384317143496 116.7375426822962 -1.5902773407317584e-15 6.3611093629270335e-15 8.827812596100317e-32 1.813884861363464 14.20533091385773 30.90834529600503 -0.8852573877977368 -4.514268879341277 -4.1317410331544995 158.2815682776484 -70.8750993753363 117.19914421736199 -2.648343778830095e-31 6.3611093629270335e-15 4.770832022195275e-15
1.4900000095367432 -0.07999999821186066 0.052000001072883606 0.0 0.0 87.51046554920042 -2.9871559210898093 -2.050817294535452 -0.19650620096776378 -2.8499303884793426e-07 -2.3108839989080565e-07 0.1689879983398872 96.52884962737977 7.620529368133205 177.79780485715884 -2.9339936562136425e-07 5.058189620978242e-07 16.778165436859357 -7.397928093334328e-07 -37.65510209145178 24.780430531330936 -6.3611093629270335e-15 0.0 0.0 -86.86597070594507 10.862683951895116 -173.13663419180824 -2.3105702854509324e-06 -8.386678394386808e-06 -21.242182605153484 7.917062191831107e-07 -14.653879446566966 -21.691219157793572 7.951386703658792e-15 2.2069531490250793e-31 3.1805546814635168e-15 -2.7362185338599536 10.639624059673375 -26.74046356206678 -0.6520968526794446 1.3853378840887016 -1.1368098256672714 72.37421310740136 -47.930572169435194 118.24247415515828 4.770832022195275e-15 -3.1805546814635168e-15 1.3241718894150476e-31 2.0616292542904526 14.19898965929831 30.94398503543733 -0.9824367819519815 -4.300018650459926 -3.902097841079634 158.50726755646855 -70.91660658579865 117.6707549478535 0.0 0.0 -3.975693351829395e-15
